<mxfile host="drawio-plugin" agent="Mozilla/5.0 (Windows NT 10.0; Win64; x64) AppleWebKit/537.36 (KHTML, like Gecko) Chrome/122.0.0.0 Safari/537.36" modified="2025-03-15T15:25:31.253Z" version="22.1.22" etag="ZnQQvicJkj2myC1jswLX" type="embed">
  <diagram name="Seite-1" id="jHkqVB11kq6veW1EHMd9">
    <mxGraphModel dx="306" dy="769" grid="1" gridSize="10" guides="1" tooltips="1" connect="1" arrows="1" fold="1" page="1" pageScale="1" pageWidth="827" pageHeight="1169" math="0" shadow="0">
      <root>
        <mxCell id="0" />
        <mxCell id="1" parent="0" />
        <mxCell id="Yl5Yx5mMwYQs-n8jcrN2-9" value="feature 1" style="rounded=1;whiteSpace=wrap;html=1;" parent="1" vertex="1">
          <mxGeometry x="360" y="200" width="80" height="20" as="geometry" />
        </mxCell>
        <mxCell id="Yl5Yx5mMwYQs-n8jcrN2-10" value="task 1" style="rounded=1;whiteSpace=wrap;html=1;" parent="1" vertex="1">
          <mxGeometry x="200" y="260" width="80" height="20" as="geometry" />
        </mxCell>
        <mxCell id="Yl5Yx5mMwYQs-n8jcrN2-34" style="edgeStyle=orthogonalEdgeStyle;rounded=1;orthogonalLoop=1;jettySize=auto;html=1;entryX=0.5;entryY=1;entryDx=0;entryDy=0;curved=0;endArrow=blockThin;endFill=1;exitX=0.25;exitY=1;exitDx=0;exitDy=0;" parent="1" source="Yl5Yx5mMwYQs-n8jcrN2-11" target="Yl5Yx5mMwYQs-n8jcrN2-10" edge="1">
          <mxGeometry relative="1" as="geometry">
            <Array as="points">
              <mxPoint x="380" y="300" />
              <mxPoint x="240" y="300" />
            </Array>
          </mxGeometry>
        </mxCell>
        <mxCell id="Yl5Yx5mMwYQs-n8jcrN2-35" value="&amp;nbsp;predecessor&amp;nbsp;" style="edgeLabel;html=1;align=center;verticalAlign=middle;resizable=0;points=[];" parent="Yl5Yx5mMwYQs-n8jcrN2-34" vertex="1" connectable="0">
          <mxGeometry x="-0.0258" y="1" relative="1" as="geometry">
            <mxPoint x="-3" y="-1" as="offset" />
          </mxGeometry>
        </mxCell>
        <mxCell id="Yl5Yx5mMwYQs-n8jcrN2-11" value="task 2" style="rounded=1;whiteSpace=wrap;html=1;" parent="1" vertex="1">
          <mxGeometry x="360" y="260" width="80" height="20" as="geometry" />
        </mxCell>
        <mxCell id="Yl5Yx5mMwYQs-n8jcrN2-12" value="task 3" style="rounded=1;whiteSpace=wrap;html=1;" parent="1" vertex="1">
          <mxGeometry x="520" y="260" width="80" height="20" as="geometry" />
        </mxCell>
        <mxCell id="Yl5Yx5mMwYQs-n8jcrN2-15" value="" style="endArrow=none;html=1;rounded=1;exitX=0.5;exitY=0;exitDx=0;exitDy=0;edgeStyle=elbowEdgeStyle;" parent="1" source="Yl5Yx5mMwYQs-n8jcrN2-10" edge="1">
          <mxGeometry width="50" height="50" relative="1" as="geometry">
            <mxPoint x="360" y="330" as="sourcePoint" />
            <mxPoint x="360" y="210" as="targetPoint" />
            <Array as="points">
              <mxPoint x="240" y="220" />
            </Array>
          </mxGeometry>
        </mxCell>
        <mxCell id="Yl5Yx5mMwYQs-n8jcrN2-16" value="superTask / subTask" style="edgeLabel;html=1;align=center;verticalAlign=middle;resizable=0;points=[];" parent="Yl5Yx5mMwYQs-n8jcrN2-15" vertex="1" connectable="0">
          <mxGeometry x="-0.5597" y="1" relative="1" as="geometry">
            <mxPoint y="16" as="offset" />
          </mxGeometry>
        </mxCell>
        <mxCell id="Yl5Yx5mMwYQs-n8jcrN2-17" value="" style="endArrow=none;html=1;rounded=1;exitX=0.5;exitY=0;exitDx=0;exitDy=0;edgeStyle=elbowEdgeStyle;entryX=0.5;entryY=1;entryDx=0;entryDy=0;" parent="1" source="Yl5Yx5mMwYQs-n8jcrN2-11" target="Yl5Yx5mMwYQs-n8jcrN2-9" edge="1">
          <mxGeometry width="50" height="50" relative="1" as="geometry">
            <mxPoint x="290" y="270" as="sourcePoint" />
            <mxPoint x="370" y="220" as="targetPoint" />
            <Array as="points">
              <mxPoint x="400" y="240" />
            </Array>
          </mxGeometry>
        </mxCell>
        <mxCell id="Yl5Yx5mMwYQs-n8jcrN2-18" value="superTask / subTask" style="edgeLabel;html=1;align=center;verticalAlign=middle;resizable=0;points=[];" parent="Yl5Yx5mMwYQs-n8jcrN2-17" vertex="1" connectable="0">
          <mxGeometry x="-0.5597" y="1" relative="1" as="geometry">
            <mxPoint y="-13" as="offset" />
          </mxGeometry>
        </mxCell>
        <mxCell id="Yl5Yx5mMwYQs-n8jcrN2-19" value="" style="endArrow=none;html=1;rounded=1;exitX=0.5;exitY=0;exitDx=0;exitDy=0;edgeStyle=elbowEdgeStyle;entryX=1;entryY=0.5;entryDx=0;entryDy=0;" parent="1" source="Yl5Yx5mMwYQs-n8jcrN2-12" target="Yl5Yx5mMwYQs-n8jcrN2-9" edge="1">
          <mxGeometry width="50" height="50" relative="1" as="geometry">
            <mxPoint x="290" y="270" as="sourcePoint" />
            <mxPoint x="370" y="220" as="targetPoint" />
            <Array as="points">
              <mxPoint x="560" y="230" />
            </Array>
          </mxGeometry>
        </mxCell>
        <mxCell id="Yl5Yx5mMwYQs-n8jcrN2-20" value="superTask / subTask" style="edgeLabel;html=1;align=center;verticalAlign=middle;resizable=0;points=[];" parent="Yl5Yx5mMwYQs-n8jcrN2-19" vertex="1" connectable="0">
          <mxGeometry x="-0.5597" y="1" relative="1" as="geometry">
            <mxPoint y="16" as="offset" />
          </mxGeometry>
        </mxCell>
        <mxCell id="Yl5Yx5mMwYQs-n8jcrN2-28" value="" style="endArrow=blockThin;html=1;rounded=0;entryX=0;entryY=0.5;entryDx=0;entryDy=0;startArrow=none;startFill=0;endFill=1;exitX=1;exitY=0.5;exitDx=0;exitDy=0;" parent="1" source="Yl5Yx5mMwYQs-n8jcrN2-10" target="Yl5Yx5mMwYQs-n8jcrN2-11" edge="1">
          <mxGeometry width="50" height="50" relative="1" as="geometry">
            <mxPoint x="280" y="330" as="sourcePoint" />
            <mxPoint x="410" y="280" as="targetPoint" />
          </mxGeometry>
        </mxCell>
        <mxCell id="Yl5Yx5mMwYQs-n8jcrN2-30" value="&amp;nbsp;successor&amp;nbsp;" style="edgeLabel;html=1;align=center;verticalAlign=middle;resizable=0;points=[];" parent="Yl5Yx5mMwYQs-n8jcrN2-28" vertex="1" connectable="0">
          <mxGeometry x="-0.3341" y="-1" relative="1" as="geometry">
            <mxPoint x="9" y="-1" as="offset" />
          </mxGeometry>
        </mxCell>
        <mxCell id="Yl5Yx5mMwYQs-n8jcrN2-31" value="" style="endArrow=blockThin;html=1;rounded=0;entryX=0;entryY=0.5;entryDx=0;entryDy=0;startArrow=none;startFill=0;endFill=1;exitX=1;exitY=0.5;exitDx=0;exitDy=0;" parent="1" source="Yl5Yx5mMwYQs-n8jcrN2-11" target="Yl5Yx5mMwYQs-n8jcrN2-12" edge="1">
          <mxGeometry width="50" height="50" relative="1" as="geometry">
            <mxPoint x="290" y="280" as="sourcePoint" />
            <mxPoint x="370" y="280" as="targetPoint" />
          </mxGeometry>
        </mxCell>
        <mxCell id="Yl5Yx5mMwYQs-n8jcrN2-32" value="&amp;nbsp;successor&amp;nbsp;" style="edgeLabel;html=1;align=center;verticalAlign=middle;resizable=0;points=[];" parent="Yl5Yx5mMwYQs-n8jcrN2-31" vertex="1" connectable="0">
          <mxGeometry x="-0.3341" y="-1" relative="1" as="geometry">
            <mxPoint x="9" y="-1" as="offset" />
          </mxGeometry>
        </mxCell>
        <mxCell id="Yl5Yx5mMwYQs-n8jcrN2-36" style="edgeStyle=orthogonalEdgeStyle;rounded=1;orthogonalLoop=1;jettySize=auto;html=1;curved=0;endArrow=blockThin;endFill=1;exitX=0.5;exitY=1;exitDx=0;exitDy=0;entryX=0.75;entryY=1;entryDx=0;entryDy=0;" parent="1" source="Yl5Yx5mMwYQs-n8jcrN2-12" target="Yl5Yx5mMwYQs-n8jcrN2-11" edge="1">
          <mxGeometry relative="1" as="geometry">
            <mxPoint x="390" y="290" as="sourcePoint" />
            <mxPoint x="420" y="350" as="targetPoint" />
            <Array as="points">
              <mxPoint x="560" y="300" />
              <mxPoint x="420" y="300" />
            </Array>
          </mxGeometry>
        </mxCell>
        <mxCell id="Yl5Yx5mMwYQs-n8jcrN2-37" value="&amp;nbsp;predecessor&amp;nbsp;" style="edgeLabel;html=1;align=center;verticalAlign=middle;resizable=0;points=[];" parent="Yl5Yx5mMwYQs-n8jcrN2-36" vertex="1" connectable="0">
          <mxGeometry x="-0.0258" y="1" relative="1" as="geometry">
            <mxPoint x="-11" y="-1" as="offset" />
          </mxGeometry>
        </mxCell>
      </root>
    </mxGraphModel>
  </diagram>
</mxfile>
